<!DOCTYPE svg PUBLIC "-//W3C//DTD SVG 1.1//EN" "http://www.w3.org/Graphics/SVG/1.1/DTD/svg11.dtd">
<!-- Uploaded to: SVG Repo, www.svgrepo.com, Transformed by: SVG Repo Mixer Tools -->
<svg fill="#000000" height="800px" width="800px" version="1.1" id="Layer_1" xmlns="http://www.w3.org/2000/svg" xmlns:xlink="http://www.w3.org/1999/xlink" viewBox="0 0 512 512" xml:space="preserve" stroke="#000000" stroke-width="15.36">
<g id="SVGRepo_bgCarrier" stroke-width="0"/>
<g id="SVGRepo_tracerCarrier" stroke-linecap="round" stroke-linejoin="round"/>
<g id="SVGRepo_iconCarrier"> <g> <g> <path d="M486.22,25.78c-34.364-34.366-90.272-34.372-124.619-0.024l-38.974,38.975L283.675,25.78l-15.581,15.58l38.952,38.952 L174.618,212.739l-0.005,0.004c0,0.001-0.003,0.003-0.003,0.004L57.737,329.621c-25.372,25.372-32.586,64.089-18.812,96.712 L3.228,462.031c-4.304,4.302-4.304,11.278,0,15.58l31.16,31.162c2.066,2.067,4.868,3.228,7.79,3.228 c2.921,0,5.724-1.161,7.789-3.226l35.708-35.706c32.626,13.771,71.342,6.559,96.703-18.802l249.311-249.311l31.346,31.346 l15.581-15.58l-31.346-31.346l38.974-38.975C520.594,116.047,520.584,60.143,486.22,25.78z M166.799,438.684 c-20.506,20.505-52.648,25.184-78.165,11.392c-4.288-2.323-9.583-1.545-13.029,1.9l-33.428,33.426l-15.579-15.581l33.42-33.42 c3.446-3.447,4.22-8.747,1.899-13.033c-13.801-25.51-9.115-57.654,11.399-78.167l15.606-15.606l23.371,23.372 c2.149,2.151,4.971,3.226,7.789,3.226c2.819,0,5.64-1.076,7.79-3.226c4.304-4.304,4.304-11.278,0-15.581L104.5,314.016 l31.163-31.162l23.371,23.372c2.149,2.151,4.971,3.226,7.789,3.226c2.819,0,5.64-1.076,7.79-3.226 c4.304-4.304,4.304-11.278,0-15.581l-23.371-23.371l31.16-31.16l23.371,23.371c2.149,2.152,4.971,3.228,7.79,3.228 c2.819,0,5.64-1.076,7.789-3.226c4.304-4.302,4.304-11.278,0-15.581l-23.371-23.37l31.163-31.163l23.373,23.371 c2.152,2.151,4.971,3.226,7.789,3.226c2.819,0,5.64-1.076,7.79-3.228c4.303-4.302,4.303-11.278,0-15.58l-23.371-23.37l31.16-31.16 l23.371,23.371c2.149,2.151,4.971,3.226,7.79,3.226c2.819,0,5.64-1.076,7.789-3.226c4.304-4.304,4.304-11.278,0-15.581 l-23.371-23.37l31.16-31.161l93.486,93.485L166.799,438.684z M431.689,173.794l-93.483-93.483l38.974-38.974 c25.762-25.758,67.684-25.753,93.462,0.024c25.773,25.773,25.784,67.697,0.024,93.458L431.689,173.794z"/> </g> </g> </g>
</svg>