<?xml version="1.0" encoding="iso-8859-1"?>
<!-- Uploaded to: SVG Repo, www.svgrepo.com, Generator: SVG Repo Mixer Tools -->
<svg fill="#000000" version="1.1" id="Layer_1" xmlns="http://www.w3.org/2000/svg" xmlns:xlink="http://www.w3.org/1999/xlink" 
	 viewBox="0 0 512 512" xml:space="preserve">
<g>
	<g>
		<g>
			<path d="M410.667,0H93.557C85.824,0,80,6.08,80,14.144V96c0,10.763,10.56,21.333,21.333,21.333H112V466.72
				c0,24.117,23.211,45.28,49.664,45.28h195.733C381.685,512,400,492.533,400,466.72V117.333h10.667
				C424.533,117.333,432,106.347,432,96V18.72C432,0,418.645,0,410.667,0z M378.667,466.72c0,11.531-6.656,23.947-21.269,23.947
				H161.664c-14.304,0-28.331-11.861-28.331-23.947v-29.387h245.333V466.72z M378.667,416H133.333V181.333h245.333V416z
				 M378.667,160H133.333v-42.667h245.333V160z M410.645,96H102.24c-0.342-0.251-0.648-0.549-0.907-0.885V21.333h309.333L411.243,96
				C411.044,96.022,410.844,96.022,410.645,96z"/>
			<rect x="165.333" y="224" width="128" height="21.333"/>
			<rect x="165.333" y="288" width="64" height="21.333"/>
			<rect x="165.333" y="352" width="128" height="21.333"/>
		</g>
	</g>
</g>
</svg>