<?xml version="1.0" encoding="UTF-8"?>
<!-- Uploaded to: ICON Repo, www.svgrepo.com, Generator: ICON Repo Mixer Tools -->
<svg fill="#000000" width="800px" height="800px" version="1.1" viewBox="144 144 512 512" xmlns="http://www.w3.org/2000/svg">
 <g>
  <path d="m340.81 376.18c-16.633-9.6055-34.609-12.34-45.488-7.0742l-1.5703 0.84375c-0.10547 0.054688-0.21875 0.050782-0.32422 0.097657-24.086 11.93-49.078 23.598-75.34 34.973 4.7812 1.2305 13.398 4.6719 19.566 8.2344 38.238 22.121 70.508 76.52 70.383 121.95-0.019531 7.0781-1.1641 15.066-2.3047 19.523 33.039-25.695 66.207-48.891 99.629-70.086-0.96094-40.625-28.875-87.82-64.551-108.46z"/>
  <path d="m232.71 421.86c-33.793-19.465-60.75-5.0859-60.852 34.699-0.11719 41.578 29.203 92.391 65.363 113.27 35.914 20.738 60.879 2.8242 60.879-34.645 0.16797-41.918-29.648-92.684-65.391-113.32zm8.2617 131.04c-28.574-16.488-52.629-58.207-52.539-91.102 0-28.73 17.176-36.547 40.5-23.031 28.613 16.543 52.715 58.293 52.629 91.172-0.003906 28.316-16.574 36.852-40.59 22.961z"/>
  <path d="m223.96 447.36c-18.02-10.441-25.613-4.5-25.613 14.461-0.085937 29.793 21.707 67.562 47.582 82.496 16.855 9.75 25.707 6.1484 25.707-14.371v-0.015625c0.085937-29.766-21.758-67.578-47.676-82.57z"/>
  <path d="m475.5 443.55 3.7383-2.1758c-1.125-40.082-29.359-86.914-65.336-107.73-16.703-9.6523-32.086-11.371-43.277-4.8477-16.848 9.7578-34.316 19.289-52.316 28.645 8.9023 1.4805 18.34 4.8672 27.469 10.141 36.66 21.199 65.75 68.488 69.242 110.82 2.7461-1.7031 5.5078-3.3203 8.2578-4.9961 19.016-11.582 35.207-20.762 52.223-29.863z"/>
  <path d="m562.72 230.06c-15.449-8.9219-30.027-11.023-41.062-5.9102-1.4922 0.69141-2.9141 1.8164-3.9922 2.7188-36.863 30.891-79.195 60.957-124.86 88.738 8.2734 1.168 17.043 4.2578 26.047 9.4609 37.289 21.57 66.824 69.199 70.027 111.33 39.273-20.371 79.105-38.012 119.8-52.918 1.3164-0.48047 3.0039-1.1562 4.3203-2.1016 9.7656-6.9375 15.129-20.418 15.129-37.965 0.16797-41.559-29.172-92.398-65.41-113.36z"/>
  <path d="m483.71 450.38c-4.5781 2.4336-7.5586 4.3242-66.539 38.598 4.2891 27.941 14.426 47.012 30.203 56.793l21.582-47.227c0.92969-2.0156 3.0312-3.168 5.2773-2.8398 23.711 3.6992 61.512 6.1328 80.934 0.35938-32.141-8.0703-56.121-23.395-71.457-45.684z"/>
 </g>
</svg>