<?xml version="1.0" encoding="iso-8859-1"?>
<!-- Uploaded to: SVG Repo, www.svgrepo.com, Generator: SVG Repo Mixer Tools -->
<!DOCTYPE svg PUBLIC "-//W3C//DTD SVG 1.1//EN" "http://www.w3.org/Graphics/SVG/1.1/DTD/svg11.dtd">
<svg fill="#000000" version="1.1" id="Capa_1" xmlns="http://www.w3.org/2000/svg" xmlns:xlink="http://www.w3.org/1999/xlink" 
	 width="800px" height="800px" viewBox="0 0 31.926 31.925"
	 xml:space="preserve">
<g>
	<g>
		<path d="M18.671,12.974l7.918-10.087c0.181-0.23,0.171-0.554-0.019-0.772c-0.194-0.219-0.514-0.268-0.764-0.118l-5.959,3.546
			c-2.408,1.431-4.435,3.415-5.92,5.785l1.87,1.645L18.671,12.974L18.671,12.974z"/>
		<path d="M12.632,18.949l-1.919-2.028l-1.628,2.847c-0.471-0.14-0.966-0.21-1.471-0.21c-1.618,0-3.118,0.729-4.117,2.001
			c-1.777,2.268-1.381,5.562,0.887,7.341c0.929,0.73,2.045,1.116,3.225,1.116c1.619,0,3.119-0.728,4.117-1.999
			c1.478-1.885,1.454-4.475,0.103-6.319l2.109-2.688L12.632,18.949z M10.086,26.731c-1.039,1.32-3.089,1.576-4.416,0.529
			c-1.366-1.069-1.604-3.055-0.535-4.42c0.602-0.765,1.505-1.203,2.479-1.203c0.71,0,1.381,0.232,1.943,0.673
			C10.92,23.381,11.159,25.365,10.086,26.731z"/>
		<path d="M31.918,14.899c-0.045-0.287-0.291-0.502-0.579-0.509l-15.91-0.394h-0.021L9.989,9.404c0.369-0.807,0.526-1.7,0.446-2.608
			c-0.12-1.392-0.775-2.651-1.846-3.55C7.646,2.454,6.453,2.018,5.226,2.018c-1.546,0-3.008,0.68-4.005,1.864
			c-1.852,2.209-1.564,5.513,0.64,7.367c0.94,0.792,2.136,1.227,3.364,1.227c0.875,0,1.721-0.219,2.471-0.62l0,0l5.382,6.047
			c0.5,0.029,13.152,0.35,13.9-0.002l4.546-2.34C31.797,15.464,31.964,15.186,31.918,14.899z M7.633,9.274
			c-1.071,1.275-3.15,1.459-4.435,0.382C1.872,8.541,1.701,6.549,2.814,5.22c0.6-0.712,1.479-1.121,2.411-1.121
			c0.739,0,1.459,0.263,2.024,0.74C7.895,5.38,8.287,6.137,8.362,6.974C8.434,7.812,8.175,8.629,7.633,9.274z M15.21,16.208
			c-0.409,0.559-1.178,0.692-1.752,0.321h-0.002c-0.021-0.014-0.043-0.026-0.064-0.042c-0.22-0.162-0.373-0.38-0.456-0.62
			c-0.132-0.39-0.08-0.836,0.183-1.193c0.425-0.579,1.237-0.701,1.812-0.276c0.006,0.003,0.011-0.002,0.016,0.002
			c0.288,0.218,0.46,0.539,0.504,0.871C15.493,15.59,15.418,15.929,15.21,16.208z"/>
	</g>
</g>
</svg>